<svg width="21" height="20" viewBox="0 0 21 20" fill="none" xmlns="http://www.w3.org/2000/svg">
<path d="M2.99996 2.5H18C18.221 2.5 18.4329 2.5878 18.5892 2.74408C18.7455 2.90036 18.8333 3.11232 18.8333 3.33333V16.6667C18.8333 16.8877 18.7455 17.0996 18.5892 17.2559C18.4329 17.4122 18.221 17.5 18 17.5H2.99996C2.77895 17.5 2.56698 17.4122 2.4107 17.2559C2.25442 17.0996 2.16663 16.8877 2.16663 16.6667V3.33333C2.16663 3.11232 2.25442 2.90036 2.4107 2.74408C2.56698 2.5878 2.77895 2.5 2.99996 2.5ZM17.1666 6.03167L10.56 11.9483L3.83329 6.01333V15.8333H17.1666V6.03167ZM4.25913 4.16667L10.5508 9.71833L16.7516 4.16667H4.25913Z" fill="white" fill-opacity="0.46"/>
</svg>
